<svg height="199" viewBox="0 0 300 199" width="300" xmlns="http://www.w3.org/2000/svg"><g fill="none" fill-rule="evenodd" transform="translate(0 -7)"><rect fill="#fff" height="163.25" rx="11.22807" stroke="#e8e8e8" stroke-width=".75" width="235.25" x="32.375" y="25.375"/><circle cx="63" cy="54" fill="#48c1db" r="15"/><rect fill="#d5d5d5" height="7" rx="3.5" width="158" x="91" y="42"/><rect fill="#d5d5d5" height="7" rx="3.5" width="96" x="91" y="57"/><g fill-rule="nonzero" transform="translate(91 74)"><path d="m25.0637845 8.83886426h1.1024385v1.18770994h-1.1024385v1.9734258h-1.4800694v-1.9734258h-3.8311259l-.0426358-.90144139 3.8250352-5.99336719h1.5287959zm-3.8006719 0h2.3206025v-3.70321875l-.1096347.19490625zm11.8466455 3.16113574h-5.9629131v-1.017167l2.9540479-3.22204394c.4263595-.47508636.7298824-.87200085.9105776-1.19075537.1806953-.31875452.2710415-.63851939.2710415-.9593042 0-.42229898-.1187698-.76338151-.356313-1.02325781-.2375431-.2598763-.557308-.3898125-.9593042-.3898125-.4791469 0-.8506832.14617823-1.1146201.43853906-.2639369.29236084-.3959033.69232071-.3959033 1.1998916h-1.4800693c0-.54005543.1228303-1.02630106.3684946-1.45875146.2456643-.43245041.5968981-.7684573 1.0537119-1.00803076.4568138-.23957347.9836645-.3593584 1.5805679-.3593584.8608402 0 1.5399599.21622196 2.0373794.64867236.4974194.43245041.7461255 1.03035995.7461255 1.79374658 0 .44260183-.1248606.90651467-.3745855 1.39175245-.2497249.48523777-.6588209 1.0364515-1.2273003 1.65365771l-2.168332 2.32060258h4.1173945z" fill="#2a8dd4"/><path d="m.63512645 4.77657547 1.77191817-3.39489255c.23891031-.40831783.67027616-1.37502558 1.14146039-1.37502558h5.9494622c.63299199 0 1.09949429.1857465 1.09949429.41452794v6.43100579c0 .36068082-.2599217.70775096-.5121048.96635222l-4.0968053 3.74282271c-.48117065.0296071-.79705746-.0907976-.9476604-.3612141-.22590442-.4056247-.17260931-1.01278-.13942732-1.1624965l.68822908-3.2564391h-3.74010554c-.73000375 0-1.32727953.02333776-1.32727953-.72524495v-.7349721c0-.19054833.03981839-.37429135.11281876-.54442378zm11.64152735-4.76991813h.8395962c.4636961 0 .8395962.37913417.8395962.84681987v5.08091922c0 .4676857-.3759001.84681987-.8395962.84681987h-.8395962c-.4636961 0-.8395961-.37913417-.8395961-.84681987v-5.08091922c0-.4676857.3759-.84681987.8395961-.84681987z" fill="#319be6" transform="matrix(-1 0 0 -1 14.478154 11.572406)"/></g><circle cx="63" cy="114" fill="#30d684" r="15"/><rect fill="#d5d5d5" height="7" rx="3.5" width="133" x="91" y="104"/><rect fill="#d5d5d5" height="7" rx="3.5" width="96" x="91" y="119"/><rect fill="#eff3f5" height="30" rx="15" width="177" x="42" y="147"/><g transform="translate(227 147)"><circle cx="15" cy="15" fill="#4ca3e2" r="15"/><path d="m11.128235 21.7847045 11.9994823-6.0056807c.3667064-.1835347.5151964-.6295932.3316617-.9962996-.0718139-.1434858-.1881759-.2598478-.3316617-.3316617l-11.9914653-6.00166832c-.3667064-.18353471-.812765-.03504472-.9962997.33166168-.0700513.13996392-.0940817.29848489-.0686592.45292184l.7243152 4.4000803c.0451516.2742876.2685282.4842802.5450793.5124198l6.4701298.6583491c.1023533.0104146.1811709.0950176.1843217.1978511l.0034147.1114472c.0049861.1627351-.1191658.3004881-.281542.3123854l-6.3587592.465908c-.2848483.0208709-.517926.234934-.5629042.516982l-.7326676 4.5943943c-.06457804.4049547.2113517.7855861.6163063.8501642.1533069.0244478.3104209.0002277.4492479-.0692546z" fill="#fff"/></g><g fill-rule="nonzero"><path d="m65.4716797 163.991211c-.0930994.986007-.4570281 1.755124-1.0917969 2.307373s-1.4789986.828369-2.5327148.828369c-.7363318 0-1.3848442-.174559-1.9455567-.523682-.5607124-.349122-.9934067-.845293-1.2980957-1.488525s-.4633788-1.390132-.4760742-2.240723v-.863281c0-.871749.1544581-1.639808.4633789-2.304199s.7521944-1.176431 1.329834-1.536133 1.2451948-.539551 2.0026855-.539551c1.0198619 0 1.8408172.277179 2.4628907.831543.6220734.554365.9838862 1.337235 1.0854492 2.348633h-1.5996094c-.0761722-.664391-.2697738-1.143634-.5808105-1.437744s-.7670055-.441162-1.36792-.441162c-.6982456 0-1.2346172.254962-1.6091308.764892-.3745136.509931-.5659993 1.257889-.5744629 2.243897v.818848c0 .998703.1787905 1.760414.5363769 2.285156.3575865.524742.8812629.787109 1.571045.787109.630537 0 1.1044906-.141763 1.421875-.425293s.5183915-.755368.6030273-1.415527zm.996582-.48877c0-.672855.1332995-1.27905.3999024-1.818603.2666029-.539554.6411108-.954263 1.1235351-1.244141.4824243-.289877 1.0367807-.434814 1.663086-.434814.9267624 0 1.6789521.298337 2.2565918.895019.5776396.596683.8897295 1.388016.9362792 2.374024l.0063477.361816c0 .677087-.1301256 1.282224-.3903809 1.81543-.2602552.533206-.6326473.945799-1.1171875 1.237793-.4845401.291993-1.0441862.437988-1.678955.437988-.9690804 0-1.7445446-.322669-2.326416-.968017-.5818714-.645349-.8728028-1.505448-.8728028-2.580323zm1.5424805.133301c0 .706709.1459946 1.260008.4379883 1.659912.2919936.399905.6982396.599854 1.21875.599854s.9256984-.203123 1.2155761-.609375c.2898778-.406252.4348145-1.00081.4348145-1.783692 0-.694013-.1491684-1.244138-.4475098-1.65039-.2983413-.406252-.7035293-.609375-1.2155761-.609375-.5035833 0-.9034816.199949-1.1997071.599853-.2962254.399905-.4443359.997636-.4443359 1.793213zm7.5981445-3.503906.0444336.717285c.4824243-.562828 1.1425739-.844238 1.9804688-.844238.9182988 0 1.5467105.351233 1.8852539 1.053711.4993514-.702478 1.2018184-1.053711 2.1074218-1.053711.7574908 0 1.3213686.20947 1.6916504.628418.3702818.418947.5596517 1.03678.5681153 1.853515v4.513184h-1.5424805v-4.46875c0-.435875-.0952139-.75537-.2856445-.958496-.1904307-.203126-.5056944-.304688-.9458008-.304688-.3512387 0-.6379384.094156-.8601074.282471-.2221691.188315-.3776851.434813-.4665528.739502l.0063477 4.709961h-1.5424805v-4.519531c-.0211589-.808273-.4337525-1.212403-1.2377929-1.212403-.6178417 0-1.0558256.251788-1.3139649.755372v4.976562h-1.5424805v-6.868164zm11.3115235 0 .0444336.717285c.4824242-.562828 1.1425739-.844238 1.9804687-.844238.9182989 0 1.5467105.351233 1.8852539 1.053711.4993515-.702478 1.2018184-1.053711 2.1074219-1.053711.7574907 0 1.3213686.20947 1.6916504.628418.3702818.418947.5596516 1.03678.5681152 1.853515v4.513184h-1.5424805v-4.46875c0-.435875-.0952139-.75537-.2856445-.958496s-.5056944-.304688-.9458008-.304688c-.3512387 0-.6379383.094156-.8601074.282471s-.3776851.434813-.4665527.739502l.0063476 4.709961h-1.5424804v-4.519531c-.021159-.808273-.4337525-1.212403-1.237793-1.212403-.6178416 0-1.0558255.251788-1.3139649.755372v4.976562h-1.5424804v-6.868164zm12.8857421 6.995117c-.9775439 0-1.7699351-.307858-2.3771972-.923584-.6072622-.615726-.9108887-1.435623-.9108887-2.459717v-.190429c0-.685551.1322415-1.298093.3967285-1.837647.264487-.539553.6358212-.959552 1.1140137-1.26001.4781925-.300457 1.0113903-.450683 1.5996094-.450683.935226 0 1.657794.298337 2.167725.895019.509931.596683.764892 1.440913.764892 2.532715v.622071h-4.4877928c.0465497.56706.2359196 1.015623.5681152 1.345703.3321957.330079.7500789.495117 1.2536621.495117.7067095 0 1.2822245-.285642 1.7265625-.856934l.831543.793457c-.275066.410484-.642169.728922-1.101318.955323-.45915.2264-.974363.339599-1.5456547.339599zm-.184082-5.884277c-.4231792 0-.7648913.14811-1.0251465.444336-.2602552.296225-.4263505.708819-.498291 1.237793h2.9389652v-.114258c-.033855-.516279-.171386-.906656-.412598-1.171143s-.575519-.396728-1.0029297-.396728zm5.5668947-1.11084.044433.793457c.507815-.61361 1.174313-.92041 1.999512-.92041 1.430346 0 2.158203.818839 2.183594 2.456543v4.538574h-1.542481v-4.449707c0-.435875-.094156-.758544-.28247-.968018-.188315-.209473-.496173-.314209-.923584-.314209-.622074 0-1.085448.28141-1.390137.844239v4.887695h-1.54248v-6.868164zm7.731445-1.669434v1.669434h1.212402v1.142578h-1.212402v3.833984c0 .262372.051839.451741.155518.568116.103679.116374.288817.17456.55542.17456.177735 0 .357583-.021158.53955-.063476v1.193359c-.351238.097331-.689777.145996-1.015625.145996-1.184901 0-1.777343-.653802-1.777343-1.961426v-3.891113h-1.129883v-1.142578h1.129883v-1.669434z" fill="#9ab0bf"/><path d="m64.5078125 56.9492188h-3.5957031l-.6835938 2.0507812h-2.180664l3.7050781-9.953125h1.9003906l3.7255859 9.953125h-2.180664zm-3.0419922-1.6611329h2.4882813l-1.2509766-3.7255859z" fill="#fff"/><path d="m60.5683594 109.046875 2.5566406 7.21875 2.5429688-7.21875h2.6933593v9.953125h-2.0576172v-2.720703l.2050782-4.696289-2.6865235 7.416992h-1.4082031l-2.6796875-7.410156.2050781 4.689453v2.720703h-2.0507812v-9.953125z" fill="#fff"/></g></g></svg>